<mxfile host="app.diagrams.net" modified="2023-01-12T11:57:37.513Z" agent="5.0 (Windows NT 10.0; Win64; x64) AppleWebKit/537.36 (KHTML, like Gecko) Chrome/106.0.0.0 YaBrowser/22.11.5.715 Yowser/2.5 Safari/537.36" version="20.7.4" etag="KYiKHxbnQBB5ZL8k7TDc" type="github">
  <diagram id="y5R-as7PVYR-M72vNoS5" name="Страница 1">
    <mxGraphModel dx="1002" dy="553" grid="1" gridSize="10" guides="1" tooltips="1" connect="1" arrows="1" fold="1" page="1" pageScale="1" pageWidth="827" pageHeight="1169" math="0" shadow="0">
      <root>
        <mxCell id="0" />
        <mxCell id="1" parent="0" />
        <mxCell id="-lRs7Aag2nZO0I0HJSkK-4" value="" style="edgeStyle=orthogonalEdgeStyle;rounded=0;orthogonalLoop=1;jettySize=auto;html=1;fontSize=11;" edge="1" parent="1" source="-lRs7Aag2nZO0I0HJSkK-2" target="-lRs7Aag2nZO0I0HJSkK-3">
          <mxGeometry relative="1" as="geometry">
            <Array as="points">
              <mxPoint x="325" y="190" />
              <mxPoint x="325" y="160" />
            </Array>
          </mxGeometry>
        </mxCell>
        <mxCell id="-lRs7Aag2nZO0I0HJSkK-6" value="" style="edgeStyle=orthogonalEdgeStyle;rounded=0;orthogonalLoop=1;jettySize=auto;html=1;fontSize=11;" edge="1" parent="1" source="-lRs7Aag2nZO0I0HJSkK-2" target="-lRs7Aag2nZO0I0HJSkK-7">
          <mxGeometry relative="1" as="geometry">
            <mxPoint x="340" y="270" as="targetPoint" />
          </mxGeometry>
        </mxCell>
        <mxCell id="-lRs7Aag2nZO0I0HJSkK-2" value="&lt;b&gt;ЕРП&lt;/b&gt;&lt;br&gt;&lt;font style=&quot;font-size: 11px;&quot;&gt;Организации: Гарант, Кипарис, Горизонт&lt;/font&gt;" style="rounded=0;whiteSpace=wrap;html=1;" vertex="1" parent="1">
          <mxGeometry x="90" y="170" width="180" height="60" as="geometry" />
        </mxCell>
        <mxCell id="-lRs7Aag2nZO0I0HJSkK-3" value="&lt;b&gt;БП КОРП&lt;/b&gt;&lt;br&gt;&lt;font style=&quot;font-size: 11px;&quot;&gt;Организации: Гарант, Кипарис&lt;/font&gt;" style="whiteSpace=wrap;html=1;rounded=0;" vertex="1" parent="1">
          <mxGeometry x="380" y="130" width="130" height="60" as="geometry" />
        </mxCell>
        <mxCell id="-lRs7Aag2nZO0I0HJSkK-7" value="&lt;b style=&quot;font-size: 12px;&quot;&gt;БП КОРП&lt;br&gt;&lt;/b&gt;Организации: Горизонт" style="rounded=0;whiteSpace=wrap;html=1;fontSize=11;" vertex="1" parent="1">
          <mxGeometry x="380" y="210" width="130" height="60" as="geometry" />
        </mxCell>
      </root>
    </mxGraphModel>
  </diagram>
</mxfile>
